<svg xmlns="http://www.w3.org/2000/svg" width="1200" height="700" viewBox="0 0 1200 700" role="img" aria-label="Apercu du projet e-commerce d'epices">
  <defs>
    <linearGradient id="bg" x1="0" y1="0" x2="1" y2="1">
      <stop offset="0%" stop-color="#102735"/>
      <stop offset="100%" stop-color="#1f3850"/>
    </linearGradient>
    <linearGradient id="accent" x1="0" y1="0" x2="1" y2="0">
      <stop offset="0%" stop-color="#f76f53"/>
      <stop offset="100%" stop-color="#ffd166"/>
    </linearGradient>
  </defs>
  <rect width="1200" height="700" fill="url(#bg)"/>
  <rect x="50" y="48" width="1100" height="74" rx="14" fill="#0c1f2a" stroke="#2f5260"/>
  <rect x="82" y="74" width="210" height="22" rx="11" fill="url(#accent)"/>
  <rect x="856" y="72" width="116" height="26" rx="13" fill="#173545"/>
  <rect x="988" y="72" width="116" height="26" rx="13" fill="#173545"/>

  <rect x="50" y="150" width="528" height="500" rx="16" fill="#0c1f2a" stroke="#2f5260"/>
  <rect x="82" y="190" width="330" height="36" rx="10" fill="#1b3f4f"/>
  <rect x="82" y="246" width="458" height="20" rx="8" fill="#294c59"/>
  <rect x="82" y="282" width="412" height="20" rx="8" fill="#294c59"/>
  <rect x="82" y="336" width="200" height="52" rx="14" fill="url(#accent)"/>

  <rect x="622" y="150" width="528" height="240" rx="16" fill="#0c1f2a" stroke="#2f5260"/>
  <rect x="652" y="190" width="180" height="24" rx="10" fill="#1b3f4f"/>
  <rect x="652" y="230" width="460" height="16" rx="8" fill="#294c59"/>
  <rect x="652" y="260" width="420" height="16" rx="8" fill="#294c59"/>

  <rect x="622" y="410" width="252" height="240" rx="16" fill="#0c1f2a" stroke="#2f5260"/>
  <rect x="652" y="444" width="190" height="24" rx="10" fill="#1b3f4f"/>
  <rect x="652" y="488" width="190" height="16" rx="8" fill="#294c59"/>

  <rect x="898" y="410" width="252" height="240" rx="16" fill="#0c1f2a" stroke="#2f5260"/>
  <rect x="928" y="444" width="190" height="24" rx="10" fill="#1b3f4f"/>
  <rect x="928" y="488" width="190" height="16" rx="8" fill="#294c59"/>
</svg>
